<svg xmlns="http://www.w3.org/2000/svg" 
  viewBox="0 0 814 263" 
  width="200" 
  height="65"
  role="img"
  aria-label="ValCore logo">
  <title>ValCore</title>
  <g transform="translate(0,263) scale(0.1,-0.1)" fill="#1D3D14" stroke="none">
    <path d="M2295 2424 c-49 -41 -112 -94 -140 -118 -27 -23 -135 -114 -240 -200
-104 -87 -215 -179 -245 -205 -30 -26 -117 -98 -192 -160 l-138 -114 0 -765
c0 -853 -7 -777 66 -710 17 16 37 28 45 26 7 -2 13 2 14 9 0 6 20 29 45 50 25
20 119 101 210 178 91 77 179 152 196 165 18 14 86 71 153 128 70 59 126 100
133 96 6 -4 8 -3 4 4 -4 6 36 45 94 93 l100 82 0 758 c0 418 -3 759 -7 759 -5
-1 -48 -34 -98 -76z M106 2463 c-4 -22 -2 -1439 3 -1479 0 -5 31 -35 67 -65
37 -30 72 -59 78 -64 12 -11 235 -200 295 -250 124 -103 458 -382 530 -442 47
-40 89 -73 94 -73 4 0 7 342 7 760 l0 760 -97 77 c-54 43 -154 125 -223 183
-69 58 -161 134 -205 170 -75 60 -196 161 -389 323 -44 38 -97 82 -118 98
l-36 29 -6 -27z M2840 1809 c0 -6 24 -71 54 -143 30 -72 89 -216 131 -321 43
-104 106 -260 142 -345 35 -85 74 -179 85 -207 l21 -53 117 0 117 0 33 88 c47
121 229 586 369 940 l21 52 -118 0 -117 0 -42 -122 c-23 -68 -76 -220 -118
-338 -42 -118 -85 -243 -96 -276 -30 -97 -57 -90 -93 21 -9 28 -21 59 -26 70
-9 21 -37 100 -155 435 l-73 205 -126 3 c-90 2 -126 -1 -126 -9z M4704 1283
l2 -538 102 -3 102 -3 0 541 0 540 -104 0 -103 0 1 -537z M4098 1520 c-75 -12
-149 -44 -183 -80 -16 -16 -31 -27 -35 -25 -4 3 -7 -1 -7 -8 1 -6 -5 -32 -12
-56 -16 -56 -9 -61 88 -61 l74 0 41 44 c49 53 92 67 167 55 91 -14 136 -65
124 -139 l-6 -38 -67 -11 c-37 -5 -104 -14 -150 -20 -169 -22 -256 -65 -300
-151 -19 -36 -23 -57 -20 -105 8 -133 110 -205 289 -205 96 0 169 25 222 76
21 20 43 34 51 31 8 -3 17 -24 21 -46 l7 -41 80 0 80 0 -5 283 c-5 320 -10
349 -70 411 -23 22 -40 45 -39 49 2 5 -1 6 -6 3 -5 -3 -32 4 -61 15 -61 23
-199 32 -283 19z m258 -437 c7 -10 13 -25 14 -33 0 -13 -1 -13 -11 0 -7 11 -8
3 -4 -28 10 -62 -12 -109 -47 -103 -5 0 -7 -5 -5 -11 1 -7 -16 -22 -38 -33
-55 -28 -159 -28 -197 0 -39 29 -53 67 -39 106 18 51 69 83 165 104 89 20 146
19 162 -2z M5340 1524 c-62 -12 -125 -39 -167 -71 -25 -19 -53 -36 -62 -38 -9
-1 -16 -8 -16 -16 0 -8 -13 -35 -28 -61 -90 -149 -73 -356 38 -494 117 -144
445 -168 582 -41 44 41 84 106 97 160 l6 27 -78 0 c-83 0 -105 -9 -125 -50
-15 -32 -110 -80 -156 -80 -45 0 -108 29 -143 64 -42 43 -62 95 -66 174 -7
125 31 217 107 260 53 30 130 30 183 0 38 -22 74 -70 64 -86 -2 -4 43 -6 101
-4 l105 3 -7 27 c-20 82 -100 165 -195 201 -54 21 -187 35 -240 25z M6128
1511 c-37 -10 -83 -28 -103 -40 -20 -12 -41 -18 -47 -15 -6 4 -8 3 -5 -3 8
-13 -47 -66 -58 -56 -4 5 -5 2 -1 -5 5 -8 1 -21 -9 -32 -31 -34 -57 -123 -62
-211 -11 -176 61 -314 198 -380 176 -86 410 -59 535 61 23 21 45 36 49 32 5
-4 5 -1 1 6 -5 8 -1 21 8 31 36 39 59 132 59 231 0 88 -2 101 -35 170 -19 41
-52 91 -73 112 -107 104 -291 143 -457 99z m254 -156 c44 -29 73 -69 62 -86
-4 -7 -3 -9 4 -5 18 11 36 -65 36 -155 -1 -75 -5 -92 -29 -138 -64 -117 -230
-147 -330 -60 -102 90 -99 353 6 431 71 53 181 59 251 13z M7180 1523 c-53 -8
-98 -36 -136 -84 -52 -66 -64 -64 -64 11 l0 61 -97 -3 -98 -3 -2 -382 -3 -383
105 0 104 0 3 233 c3 202 5 237 22 269 25 52 73 78 161 91 l75 10 0 87 c0 71
-3 89 -16 94 -9 3 -19 5 -22 5 -4 -1 -18 -4 -32 -6z M7572 1520 c-208 -29
-332 -196 -319 -430 5 -104 33 -181 87 -243 22 -24 36 -48 32 -51 -4 -4 -2 -6
3 -5 6 2 28 -7 51 -18 146 -77 383 -69 497 16 51 38 107 112 107 143 0 16 -9
18 -83 18 -83 0 -83 0 -125 -40 -49 -45 -83 -54 -177 -48 -51 3 -73 10 -107
34 -49 33 -88 101 -88 151 l0 33 128 1 c70 0 205 1 299 2 l173 2 0 50 c0 92
-41 211 -90 263 -11 12 -19 26 -16 30 3 5 -1 9 -8 9 -7 0 -26 9 -42 21 -72 54
-201 79 -322 62z m185 -146 c63 -41 103 -99 103 -149 l0 -25 -200 0 -200 0 0
30 c0 17 5 30 11 30 5 0 7 4 4 10 -15 24 48 93 109 117 39 16 141 8 173 -13z
M7232 1125 c0 -16 2 -22 5 -12 2 9 2 23 0 30 -3 6 -5 -1 -5 -18z"/>
  </g>
</svg>